<?xml version="1.0" encoding="iso-8859-1"?>
<!-- Generator: Adobe Illustrator 19.0.0, SVG Export Plug-In . SVG Version: 6.00 Build 0)  -->
<svg version="1.1" id="Capa_1" xmlns="http://www.w3.org/2000/svg" xmlns:xlink="http://www.w3.org/1999/xlink" x="0px" y="0px"
	 viewBox="0 0 512 512" style="enable-background:new 0 0 512 512;" xml:space="preserve">
<g>
	<g>
		<path d="M468,421.387c0-38.149-15.329-74.738-43.162-103.026C416.439,309.824,412,295.522,412,277v-73
			c0-78.818-59.543-144.777-136-154.698V0h-40v49.301C159.543,59.223,100,125.181,100,204v79.354
			c0,14.729-4.005,26.616-11.582,34.377C59.775,347.073,44,384.97,44,424.442V448h161.413c-0.914,3.855-1.413,7.869-1.413,12
			c0,28.673,23.327,52,52,52c28.673,0,52-23.327,52-52c0-4.131-0.499-8.145-1.413-12H468V421.387z M140,283.354V204
			c0-63.067,51.263-115.072,114.301-115.987h3.397C320.737,88.928,372,140.933,372,204v73c0,19.625,3.808,36.876,11.113,51H129.808
			C136.506,315.24,140,300.143,140,283.354z M256,472c-6.617,0-12-5.383-12-12s5.383-12,12-12s12,5.383,12,12S262.617,472,256,472z
			 M85.267,408c2.173-14.024,7.121-27.561,14.555-40h313.224c7.411,12.412,12.201,25.969,14.067,40H85.267z"/>
	</g>
</g>
<g>
</g>
<g>
</g>
<g>
</g>
<g>
</g>
<g>
</g>
<g>
</g>
<g>
</g>
<g>
</g>
<g>
</g>
<g>
</g>
<g>
</g>
<g>
</g>
<g>
</g>
<g>
</g>
<g>
</g>
</svg>
