<svg xmlns="http://www.w3.org/2000/svg" width="28.973" height="34.986" viewBox="0 0 28.973 34.986">
  <g id="Bell" transform="translate(0 0.995)">
    <path id="Path_17" data-name="Path 17" d="M72.973,28.795a10.017,10.017,0,0,0-2.949-7.04,3.977,3.977,0,0,1-.877-2.826V13.94A10.709,10.709,0,0,0,59.853,3.369V0H57.12V3.369A10.709,10.709,0,0,0,47.827,13.94v5.422a3.285,3.285,0,0,1-.791,2.349A10.419,10.419,0,0,0,44,29v1.61H55.03a3.553,3.553,0,1,0,6.914,0h11.03ZM50.56,19.362V13.94A7.957,7.957,0,0,1,58.37,6.014H58.6a7.957,7.957,0,0,1,7.811,7.926v4.988a7.554,7.554,0,0,0,.759,3.485H49.863A6.517,6.517,0,0,0,50.56,19.362Zm7.927,12.891a.82.82,0,1,1,.82-.82A.821.821,0,0,1,58.487,32.253ZM46.82,27.88a7.593,7.593,0,0,1,.995-2.733h21.4a7.173,7.173,0,0,1,.961,2.733Z" transform="translate(-44 -0.995)" fill="#0b2f43"/>
  </g>
</svg>
