<svg id="_001-calendar" data-name="001-calendar" xmlns="http://www.w3.org/2000/svg" xmlns:xlink="http://www.w3.org/1999/xlink" width="37.788" height="37.788" viewBox="0 0 37.788 37.788">
  <defs>
    <linearGradient id="linear-gradient" x1="0.073" y1="0.937" x2="1" gradientUnits="objectBoundingBox">
      <stop offset="0" stop-color="#173950"/>
      <stop offset="1" stop-color="#3282b8"/>
    </linearGradient>
  </defs>
  <g id="Group_2" data-name="Group 2">
    <g id="Group_1" data-name="Group 1">
      <path id="Path_1" data-name="Path 1" d="M33.36,2.952H31.588V0H28.636V2.952H9.152V0H6.2V2.952H4.428A4.433,4.433,0,0,0,0,7.38V33.36a4.433,4.433,0,0,0,4.428,4.428H33.36a4.433,4.433,0,0,0,4.428-4.428V7.38A4.433,4.433,0,0,0,33.36,2.952ZM34.836,33.36a1.478,1.478,0,0,1-1.476,1.476H4.428A1.478,1.478,0,0,1,2.952,33.36V13.875H34.836Zm0-22.437H2.952V7.38A1.478,1.478,0,0,1,4.428,5.9H6.2V8.857H9.152V5.9H28.636V8.857h2.952V5.9H33.36A1.478,1.478,0,0,1,34.836,7.38Z" fill="url(#linear-gradient)"/>
    </g>
  </g>
  <g id="Group_4" data-name="Group 4" transform="translate(5.104 17.659)">
    <g id="Group_3" data-name="Group 3" transform="translate(0 0)">
      <rect id="Rectangle_3" data-name="Rectangle 3" width="3" height="3" transform="translate(0.41 -0.449)" fill="url(#linear-gradient)"/>
    </g>
  </g>
  <g id="Group_6" data-name="Group 6" transform="translate(11.098 17.659)">
    <g id="Group_5" data-name="Group 5" transform="translate(0 0)">
      <rect id="Rectangle_4" data-name="Rectangle 4" width="3" height="3" transform="translate(0.415 -0.449)" fill="url(#linear-gradient)"/>
    </g>
  </g>
  <g id="Group_8" data-name="Group 8" transform="translate(17.093 17.659)">
    <g id="Group_7" data-name="Group 7" transform="translate(0 0)">
      <rect id="Rectangle_5" data-name="Rectangle 5" width="3" height="3" transform="translate(0.421 -0.449)" fill="url(#linear-gradient)"/>
    </g>
  </g>
  <g id="Group_10" data-name="Group 10" transform="translate(23.088 17.659)">
    <g id="Group_9" data-name="Group 9" transform="translate(0 0)">
      <rect id="Rectangle_6" data-name="Rectangle 6" width="3" height="3" transform="translate(0.426 -0.449)" fill="url(#linear-gradient)"/>
    </g>
  </g>
  <g id="Group_12" data-name="Group 12" transform="translate(29.082 17.659)">
    <g id="Group_11" data-name="Group 11" transform="translate(0 0)">
      <rect id="Rectangle_7" data-name="Rectangle 7" width="3" height="3" transform="translate(0.431 -0.449)" fill="url(#linear-gradient)"/>
    </g>
  </g>
  <g id="Group_14" data-name="Group 14" transform="translate(5.104 23.054)">
    <g id="Group_13" data-name="Group 13" transform="translate(0 0)">
      <rect id="Rectangle_8" data-name="Rectangle 8" width="3" height="3" transform="translate(0.41 0.155)" fill="url(#linear-gradient)"/>
    </g>
  </g>
  <g id="Group_16" data-name="Group 16" transform="translate(11.098 23.054)">
    <g id="Group_15" data-name="Group 15" transform="translate(0 0)">
      <rect id="Rectangle_9" data-name="Rectangle 9" width="3" height="3" transform="translate(0.415 0.155)" fill="url(#linear-gradient)"/>
    </g>
  </g>
  <g id="Group_18" data-name="Group 18" transform="translate(17.093 23.054)">
    <g id="Group_17" data-name="Group 17" transform="translate(0 0)">
      <rect id="Rectangle_10" data-name="Rectangle 10" width="3" height="3" transform="translate(0.421 0.155)" fill="url(#linear-gradient)"/>
    </g>
  </g>
  <g id="Group_20" data-name="Group 20" transform="translate(23.088 23.054)">
    <g id="Group_19" data-name="Group 19" transform="translate(0 0)">
      <rect id="Rectangle_11" data-name="Rectangle 11" width="3" height="3" transform="translate(0.426 0.155)" fill="url(#linear-gradient)"/>
    </g>
  </g>
  <g id="Group_22" data-name="Group 22" transform="translate(5.104 29.048)">
    <g id="Group_21" data-name="Group 21" transform="translate(0 0)">
      <rect id="Rectangle_12" data-name="Rectangle 12" width="3" height="3" transform="translate(0.41 0.161)" fill="url(#linear-gradient)"/>
    </g>
  </g>
  <g id="Group_24" data-name="Group 24" transform="translate(11.098 29.048)">
    <g id="Group_23" data-name="Group 23" transform="translate(0 0)">
      <rect id="Rectangle_13" data-name="Rectangle 13" width="3" height="3" transform="translate(0.415 0.161)" fill="url(#linear-gradient)"/>
    </g>
  </g>
  <g id="Group_26" data-name="Group 26" transform="translate(17.093 29.048)">
    <g id="Group_25" data-name="Group 25" transform="translate(0 0)">
      <rect id="Rectangle_14" data-name="Rectangle 14" width="3" height="3" transform="translate(0.421 0.161)" fill="url(#linear-gradient)"/>
    </g>
  </g>
  <g id="Group_28" data-name="Group 28" transform="translate(23.088 29.048)">
    <g id="Group_27" data-name="Group 27" transform="translate(0 0)">
      <rect id="Rectangle_15" data-name="Rectangle 15" width="3" height="3" transform="translate(0.426 0.161)" fill="url(#linear-gradient)"/>
    </g>
  </g>
  <g id="Group_30" data-name="Group 30" transform="translate(29.082 23.054)">
    <g id="Group_29" data-name="Group 29" transform="translate(0 0)">
      <rect id="Rectangle_16" data-name="Rectangle 16" width="3" height="3" transform="translate(0.431 0.155)" fill="url(#linear-gradient)"/>
    </g>
  </g>
</svg>
