<svg xmlns="http://www.w3.org/2000/svg" xmlns:xlink="http://www.w3.org/1999/xlink" width="37.788" height="37.788" viewBox="0 0 37.788 37.788">
  <defs>
    <linearGradient id="linear-gradient" x1="1" y1="0.034" x2="0" y2="0.96" gradientUnits="objectBoundingBox">
      <stop offset="0" stop-color="#3282b8"/>
      <stop offset="1" stop-color="#19415c"/>
    </linearGradient>
  </defs>
  <path id="Notes" d="M14.757,26.562h5.017v2.951H14.757Zm-5.534-.369a1.845,1.845,0,1,0,1.845,1.845A1.844,1.844,0,0,0,9.223,26.193Zm20.438-9h-14.9v2.951h14.9ZM9.223,16.823a1.845,1.845,0,1,0,1.845,1.845A1.844,1.844,0,0,0,9.223,16.823ZM29.661,8.338h-14.9v2.951h14.9ZM9.223,7.969a1.845,1.845,0,1,0,1.845,1.845A1.845,1.845,0,0,0,9.223,7.969ZM2.951,33.35V4.427A1.477,1.477,0,0,1,4.427,2.951H33.35a1.477,1.477,0,0,1,1.476,1.476V21.1h2.951V4.427A4.432,4.432,0,0,0,33.35,0H4.427A4.432,4.432,0,0,0,0,4.427V33.35a4.432,4.432,0,0,0,4.427,4.427H21.471V34.826H4.427A1.477,1.477,0,0,1,2.951,33.35ZM35.7,37.788l-2.939-2.939A6.648,6.648,0,1,1,34.9,32.812L37.788,35.7Zm-6.335-4.954a3.689,3.689,0,1,0-3.689-3.689A3.693,3.693,0,0,0,29.366,32.834Zm0,0" fill="url(#linear-gradient)"/>
</svg>
