<svg id="Pin" xmlns="http://www.w3.org/2000/svg" width="28.249" height="35.257" viewBox="0 0 28.249 35.257">
  <g id="Group_122" data-name="Group 122" transform="translate(7.572 7.574)">
    <g id="Group_121" data-name="Group 121" transform="translate(0 0)">
      <path id="Path_18" data-name="Path 18" d="M167.5,110.062a6.552,6.552,0,1,0,6.552,6.552A6.559,6.559,0,0,0,167.5,110.062Zm0,10.345a3.793,3.793,0,1,1,3.793-3.793A3.8,3.8,0,0,1,167.5,120.407Z" transform="translate(-160.947 -110.062)" fill="#0b2f43"/>
    </g>
  </g>
  <g id="Group_124" data-name="Group 124" transform="translate(0)">
    <g id="Group_123" data-name="Group 123">
      <path id="Path_19" data-name="Path 19" d="M65.009,0A14.14,14.14,0,0,0,50.885,14.124v.39c0,3.939,2.258,8.529,6.712,13.642a58.06,58.06,0,0,0,6.546,6.4l.866.7.866-.7a58.044,58.044,0,0,0,6.546-6.4c4.454-5.113,6.712-9.7,6.712-13.642v-.39A14.14,14.14,0,0,0,65.009,0ZM76.378,14.515c0,6.656-8.577,14.714-11.368,17.16-2.793-2.447-11.368-10.5-11.368-17.16v-.39a11.368,11.368,0,1,1,22.737,0Z" transform="translate(-50.885 0)" fill="#0b2f43"/>
    </g>
  </g>
</svg>
